# AST/ASF file generated using VICON BodyLanguage
# -----------------------------------------------
:version 1.10
:name VICON
:units
  mass 1.0
  length 0.45
  angle deg
:documentation
   .ast/.asf automatically generated from VICON data using
   VICON BodyBuilder and BodyLanguage model FoxedUp or BRILLIANT.MOD
:root
   order TX TY TZ RX RY RZ
   axis XYZ
   position 0 0 0  
   orientation 0 0 0 
:bonedata
  begin
     id 1 
     name lhipjoint
     direction 0.677091 -0.635792 0.370561 
     length 2.74323 
     axis 0 0 0  XYZ
  end
  begin
     id 2 
     name lfemur
     direction 0.34202 -0.939693 0  
     length 7.44995  
     axis 0 0 20  XYZ
    dof rx ry rz
    limits (-160.0 20.0)
           (-70.0 70.0)
           (-60.0 70.0)
  end
  begin
     id 3 
     name ltibia
     direction 0.34202 -0.939693 0   
     length 7.34467   
     axis 0 0 20   XYZ
    dof rx
    limits (-10.0 170.0)
  end
  begin
     id 4 
     name lfoot
     direction 0.101953 -0.280114 0.954537   
     length 1.72105   
     axis -90 7.62852e-016 20   XYZ
    dof rx rz
    limits (-45.0 90.0)
           (-70.0 20.0)
  end
  begin
     id 5 
     name ltoes
     direction 1.53537e-011 -4.21915e-011 1   
     length 0.865872   
     axis -90 7.62852e-016 20   XYZ
    dof rx
    limits (-90.0 20.0)
  end
  begin
     id 6 
     name rhipjoint
     direction -0.695735 -0.620586 0.361699   
     length 2.81045  
     axis 0 0 0  XYZ 
  end
  begin
     id 7 
     name rfemur
     direction -0.34202 -0.939693 0   
     length 7.29387   
     axis 0 0 -20   XYZ
    dof rx ry rz
    limits (-160.0 20.0)
           (-70.0 70.0)
           (-70.0 60.0)
  end
  begin
     id 8 
     name rtibia
     direction -0.34202 -0.939693 0   
     length 7.44935   
     axis 0 0 -20   XYZ
    dof rx
    limits (-10.0 170.0)
 end
 begin
     id 9 
     name rfoot
     direction -0.104163 -0.286184 0.952496   
     length 1.77731  
     axis -90 -7.62852e-016 -20   XYZ
    dof rx rz
    limits (-45.0 90.0)
           (-20.0 70.0)
  end
  begin
     id 10 
     name rtoes
     direction -1.5355e-011 -4.21888e-011 1   
     length 0.892424   
     axis -90 -7.62852e-016 -20   XYZ
    dof rx
    limits (-90.0 20.0)
  end
  begin
     id 11 
     name lowerback
     direction 0.0100202 0.997226 -0.0737589   
     length 2.16892   
     axis 0 0 0   XYZ
    dof rx ry rz
    limits (-20.0 45.0)
           (-30.0 30.0)
           (-30.0 30.0)
  end
  begin
     id 12 
     name upperback
     direction 0.00432398 0.999988 -0.00215019   
     length 2.17326   
     axis 0 0 0   XYZ
    dof rx ry rz
    limits (-20.0 45.0)
           (-30.0 30.0)
           (-30.0 30.0)
  end
  begin
     id 13 
     name thorax
     direction -0.00195047 0.999485 0.0320434   
     length 2.18139   
     axis 0 0 0   XYZ
    dof rx ry rz
    limits (-20.0 45.0)
           (-30.0 30.0)
           (-30.0 30.0)
  end
  begin
     id 14 
     name lowerneck
     direction 0.00782762 0.986241 0.165128   
     length 1.88415   
     axis 0 0 0   XYZ
    dof rx ry rz
    limits (-20.0 45.0)
           (-30.0 30.0)
           (-30.0 30.0)
  end
  begin
     id 15 
     name upperneck
     direction 0.00988667 0.981098 -0.193258   
     length 1.9242   
     axis 0 0 0   XYZ
    dof rx ry rz
    limits (-20.0 45.0)
           (-30.0 30.0)
           (-30.0 30.0)
  end
  begin
     id 16
     name head
     direction 0.00252199 0.996513 -0.0833958  
     length 1.93887  
     axis 0 0 0   XYZ
    dof rx ry rz
    limits (-20.0 45.0)
           (-30.0 30.0)
           (-30.0 30.0)
  end
  begin
     id 17 
     name lclavicle
     direction 0.929492 0.368193 -0.0218667  
     length 3.5955  
     axis 0 0 0   XYZ
    dof ry rz
    limits (-20.0 10.0)
           (0.0 20.0)
  end
  begin
     id 18 
     name lhumerus
     direction 1 -4.48972e-011 1.41911e-027   
     length 5.2795   
     axis 180 -30 -90   XYZ
    dof rx ry rz
    limits (-60.0 90.0)
           (-90.0 90.0)
           (-90.0 90.0)
  end
  begin
     id 19
     name lradius
     direction 1 -4.48963e-011 7.05772e-027   
     length 3.53504   
     axis 180 -30 -90   XYZ
    dof rx
    limits (-10.0 170.0)
  end
  begin
     id 20
     name lwrist
     direction 1 -4.48957e-011 9.54866e-027   
     length 1.76752   
     axis -7.69462e-015 90 90   XYZ
    dof ry
    limits (-180.0 0.0)
 end
  begin
     id 21 
     name lhand
     direction 1 -4.48979e-011 1.90973e-026   
     length 0.667948   
     axis -1.21857e-014 90 90   XYZ
    dof rx rz
    limits (-90.0 90.0)
           (-45.0 45.0)
  end
  begin
     id 22 
     name lfingers
     direction 1 -4.48987e-011 3.81946e-026   
     length 0.538517   
     axis -2.43714e-014 90 90   XYZ
    dof rx
    limits (0.0 90.0)
  end
  begin
     id 23
     name lthumb
     direction 0.707107 -6.34962e-011 0.707107   
     length 0.773206   
     axis -90 45 2.85299e-015   XYZ
    dof rx rz
    limits (-45.0 45.0)
           (-45.0 45.0)
  end
  begin
     id 24 
     name rclavicle
     direction -0.898763 0.414256 -0.143584   
     length 3.5176  
     axis 0 0 0   XYZ 
    dof ry rz
    limits (-10.0 20.0)
           (-20.0 0.0)
  end
  begin
     id 25 
     name rhumerus
     direction -1 -4.48971e-011 1.129e-027  
     length 5.25035   
     axis 180 30 90   XYZ
    dof rx ry rz
    limits (-90.0 60.0)
           (-90.0 90.0)
           (-90.0 90.0)
  end
  begin
     id 26 
     name rradius
     direction -1 -4.48955e-011 6.34664e-027   
     length 3.58884   
     axis 180 30 90   XYZ
    dof rx
    limits (-10.0 170.0)
  end
  begin
     id 27 
     name rwrist
     direction -1 -4.48966e-011 9.54866e-027   
     length 1.79442   
     axis -7.69462e-015 -90 -90   XYZ
    dof ry
    limits (-180.0 0.0)
  end
  begin
     id 28
     name rhand
     direction -1 -4.48973e-011 1.90973e-026   
     length 0.779235   
     axis -1.21857e-014 -90 -90   XYZ
    dof rx rz
    limits (-90.0 90.0)
           (-45.0 45.0)
  end
  begin
     id 29
     name rfingers
     direction -1 -4.48984e-011 3.81946e-026   
     length 0.62824   
     axis -2.43714e-014 -90 -90   XYZ
    dof rx
    limits (0.0 90.0)
  end
  begin
     id 30
     name rthumb
     direction -0.707107 -6.34968e-011 0.707107   
     length 0.90203   
     axis -90 -45 -2.85299e-015   XYZ
    dof rx rz
    limits (-45.0 45.0)
           (-45.0 45.0)
  end
:hierarchy
  begin
    root lhipjoint rhipjoint lowerback
    lhipjoint lfemur
    lfemur ltibia
    ltibia lfoot
    lfoot ltoes
    rhipjoint rfemur
    rfemur rtibia
    rtibia rfoot
    rfoot rtoes
    lowerback upperback
    upperback thorax
    thorax lowerneck lclavicle rclavicle
    lowerneck upperneck
    upperneck head
    lclavicle lhumerus
    lhumerus lradius
    lradius lwrist
    lwrist lhand lthumb
    lhand lfingers
    rclavicle rhumerus
    rhumerus rradius
    rradius rwrist
    rwrist rhand rthumb
    rhand rfingers
  end

#!OML:ASF I:\Random Stuff\random\construction\7_22_03\Session 2\subj1.ASF
:FULLY-SPECIFIED
:DEGREES
321
root -7.64152 17.7302 -1.39018 -151.689 76.5159 -164.007
lowerback 6.77222 1.41487 1.53812
upperback 3.13412 2.04962 -1.61775
thorax -0.450017 1.0895 -2.67099
lowerneck -20.8227 4.43029 4.39253
upperneck 43.6554 8.75096 -0.975816
head 21.4567 4.57875 1.04783
rclavicle -1.98785e-015 3.02153e-014
rhumerus -20.534 28.8463 -76.179
rradius 101.891
rwrist -28.2753
rhand -25.0107 34.0995
rfingers 7.12502
rthumb 1.50128 4.12503
lclavicle -1.98785e-015 3.02153e-014
lhumerus -3.17976 4.67973 77.4217
lradius 55.2553
lwrist 5.97118
lhand -15.3207 48.3503
lfingers 7.12502
lthumb 10.8554 78.0498
rfemur -13.3839 11.2666 23.199
rtibia 14.0262
rfoot -7.95964 -26.6862
rtoes -10.0203
lfemur -28.6706 -10.8877 -10.3525
ltibia 28.0037
lfoot -12.212 5.36563
ltoes -29.8792
322
root -7.65012 17.732 -1.41862 -150.416 76.6562 -162.839
lowerback 7.00992 1.44167 1.2567
upperback 3.26806 2.07763 -1.76119
thorax -0.446696 1.10696 -2.66803
lowerneck -20.8237 4.64005 4.50809
upperneck 43.3722 9.14584 -1.33645
head 21.3148 4.6822 0.921575
rclavicle 2.54444e-014 -1.51076e-014
rhumerus -20.0848 29.892 -76.7983
rradius 102.128
rwrist -29.1044
rhand -26.4587 35.328
rfingers 7.12502
rthumb 0.102758 5.34824
lclavicle 2.54444e-014 -1.51076e-014
lhumerus -2.0848 3.53956 77.0693
lradius 54.0753
lwrist 4.11222
lhand -15.5421 47.9169
lfingers 7.12502
lthumb 10.6418 77.6275
rfemur -13.491 10.724 23.3366
rtibia 13.8499
rfoot -7.93229 -25.9127
rtoes -10.1113
lfemur -28.8968 -10.6501 -10.2195
ltibia 28.2636
lfoot -12.3567 5.30776
ltoes -29.318
323
root -7.65982 17.7332 -1.45347 -149.049 76.8588 -161.609
lowerback 7.2266 1.47657 1.01562
upperback 3.40942 2.11849 -1.92727
thorax -0.420823 1.13191 -2.71141
lowerneck -20.9328 4.83406 4.40158
upperneck 43.1251 9.49749 -1.46808
head 21.1919 4.7603 0.947038
rclavicle -1.11319e-014 -5.56597e-015
rhumerus -19.536 30.559 -77.363
rradius 102.011
rwrist -27.2924
rhand -27.8856 35.8432
rfingers 7.12502
rthumb -1.27545 5.86731
lclavicle -1.11319e-014 -5.56597e-015
lhumerus -1.05419 2.21989 76.6162
lradius 52.9373
lwrist 2.207
lhand -16.0818 47.5105
lfingers 7.12502
lthumb 10.1212 77.2471
rfemur -13.6481 10.2465 23.4222
rtibia 13.6619
rfoot -7.78141 -25.122
rtoes -10.4315
lfemur -29.1526 -10.5604 -10.062
ltibia 28.5383
lfoot -12.5505 5.39856
ltoes -28.5366
324
root -7.67 17.7333 -1.49294 -147.614 77.1005 -160.319
lowerback 7.43798 1.52294 0.794577
upperback 3.58551 2.17752 -2.09609
thorax -0.354133 1.16754 -2.76957
lowerneck -21.1354 5.04489 4.29793
upperneck 42.8716 9.88032 -1.63588
head 21.1006 4.84152 0.96554
rclavicle 3.45885e-014 -3.18055e-014
rhumerus -18.9547 31.1088 -77.9422
rradius 102.03
rwrist -26.4612
rhand -29.2062 36.0805
rfingers 7.12502
rthumb -2.55085 6.11599
lclavicle 3.45885e-014 -3.18055e-014
lhumerus -0.0437758 0.896124 76.1397
lradius 51.8174
lwrist 0.131702
lhand -16.733 46.9738
lfingers 7.12502
lthumb 9.49292 76.74
rfemur -13.8606 9.76451 23.4831
rtibia 13.5367
rfoot -7.56573 -24.3194
rtoes -10.9967
lfemur -29.3981 -10.3733 -9.9605
ltibia 28.8052
lfoot -12.6911 5.42293
ltoes -28.3884
325
root -7.68035 17.7332 -1.52992 -146.3 77.3357 -159.094
lowerback 7.69381 1.58093 0.502565
upperback 3.80725 2.25022 -2.23418
thorax -0.267906 1.21031 -2.75807
lowerneck -21.3164 5.18641 4.30747
upperneck 42.4725 10.2112 -2.12203
head 20.9465 4.87877 0.786149
rclavicle 7.95139e-016 -1.59028e-014
rhumerus -18.3882 31.4865 -78.5247
rradius 102.36
rwrist -27.4364
rhand -29.8534 36.3798
rfingers 7.12502
rthumb -3.17588 6.42373
lclavicle 7.95139e-016 -1.59028e-014
lhumerus 0.879753 -0.395329 75.644
lradius 50.8571
lwrist -1.68401
lhand -17.2663 46.4321
lfingers 7.12502
lthumb 8.97838 76.2211
rfemur -14.0607 9.12767 23.5667
rtibia 13.4922
rfoot -7.29504 -23.4342
rtoes -12.4459
lfemur -29.5843 -9.94451 -9.97228
ltibia 29.0747
lfoot -12.7583 5.18893
ltoes -28.3636
326
root -7.69524 17.7334 -1.56814 -145.47 77.5556 -158.359
lowerback 7.99988 1.61592 0.150007
upperback 4.02165 2.28794 -2.3891
thorax -0.220145 1.23472 -2.72975
lowerneck -21.4317 5.32428 4.38373
upperneck 42.0098 10.574 -2.76837
head 20.7625 4.92053 0.522157
rclavicle 1.43125e-014 3.97569e-015
rhumerus -17.8418 31.9579 -79.139
rradius 102.803
rwrist -28.9143
rhand -30.7326 36.2598
rfingers 7.12502
rthumb -4.0249 6.31808
lclavicle 1.43125e-014 3.97569e-015
lhumerus 1.68846 -1.53938 75.1921
lradius 50.0982
lwrist -2.89724
lhand -17.8281 45.9667
lfingers 7.12502
lthumb 8.43623 75.7782
rfemur -14.2876 8.40287 23.5509
rtibia 13.5265
rfoot -7.13972 -22.5379
rtoes -13.9685
lfemur -29.7935 -9.41805 -10.1403
ltibia 29.3434
lfoot -12.8087 4.76755
ltoes -27.6971
327
root -7.71331 17.7337 -1.60953 -144.468 77.7825 -157.466
lowerback 8.42377 1.65898 -0.136147
upperback 4.15752 2.33363 -2.54946
thorax -0.314761 1.26143 -2.75178
lowerneck -21.4487 5.53652 4.51446
upperneck 41.6291 11.0738 -3.40818
head 20.6286 5.03042 0.289878
rclavicle -1.31198e-014 -7.15625e-015
rhumerus -17.3489 32.5423 -79.7767
rradius 103.127
rwrist -29.678
rhand -32.2312 35.5111
rfingers 7.12502
rthumb -5.472 5.60175
lclavicle -1.31198e-014 -7.15625e-015
lhumerus 2.39333 -2.34352 74.9301
lradius 49.4479
lwrist -3.41259
lhand -18.5527 45.6429
lfingers 7.12502
lthumb 7.73687 75.4814
rfemur -14.6116 7.68675 23.5433
rtibia 13.7033
rfoot -7.12389 -21.6461
rtoes -14.9355
lfemur -30.0033 -8.89895 -10.2899
ltibia 29.5832
lfoot -12.877 4.42194
ltoes -27.0639
328
root -7.73201 17.7325 -1.65089 -142.954 78.0496 -156.037
lowerback 8.88558 1.7223 -0.439302
upperback 4.29169 2.40155 -2.66376
thorax -0.433215 1.29825 -2.72084
lowerneck -21.4384 5.80098 4.67469
upperneck 41.2583 11.6528 -4.05067
head 20.5129 5.17655 0.0740197
rclavicle -7.95139e-016 -1.90833e-014
rhumerus -16.779 33.2512 -80.3171
rradius 103.376
rwrist -30.1143
rhand -33.7117 34.1462
rfingers 7.12502
rthumb -6.90129 4.27867
lclavicle -7.95139e-016 -1.90833e-014
lhumerus 2.9911 -2.55959 74.8421
lradius 49.021
lwrist -3.49475
lhand -18.8793 45.7158
lfingers 7.12502
lthumb 7.42165 75.5656
rfemur -15.0286 7.01787 23.6072
rtibia 14.043
rfoot -7.19385 -20.7058
rtoes -15.6494
lfemur -30.1995 -8.29461 -10.3848
ltibia 29.8092
lfoot -12.9222 4.18001
ltoes -27.2188
329
root -7.75551 17.7306 -1.69419 -141.497 78.3225 -154.696
lowerback 9.39262 1.75738 -0.795254
upperback 4.39767 2.42187 -2.75722
thorax -0.610319 1.30963 -2.63777
lowerneck -21.4421 6.08828 4.83184
upperneck 40.8441 12.2759 -4.74033
head 20.3937 5.33263 -0.149854
rclavicle -3.97569e-015 1.59028e-014
rhumerus -16.1118 34.1387 -80.7285
rradius 103.577
rwrist -30.8383
rhand -34.7255 32.7203
rfingers 7.12502
rthumb -7.87984 2.88713
lclavicle -3.97569e-015 1.59028e-014
lhumerus 3.31997 -2.14852 74.8512
lradius 49.0344
lwrist -3.48026
lhand -18.7498 46.2884
lfingers 7.12502
lthumb 7.54666 76.1337
rfemur -15.5303 6.35001 23.6107
rtibia 14.4519
rfoot -7.43195 -19.6878
rtoes -15.7249
lfemur -30.4924 -7.62043 -10.5539
ltibia 30.0553
lfoot -12.8727 3.95696
ltoes -28.2011
330
root -7.78552 17.7283 -1.73715 -139.787 78.5098 -153.141
lowerback 9.9199 1.76608 -1.03049
upperback 4.49432 2.41255 -2.84483
thorax -0.80398 1.30769 -2.61508
lowerneck -21.4887 6.4274 4.94399
upperneck 40.4514 12.9841 -5.38095
head 20.3101 5.5196 -0.314414
rclavicle -6.83819e-014 6.52014e-014
rhumerus -15.4244 35.0288 -81.0977
rradius 103.682
rwrist -31.5296
rhand -35.2276 31.4278
rfingers 7.12502
rthumb -8.36444 1.61343
lclavicle -6.83819e-014 6.52014e-014
lhumerus 3.624 -1.19352 75.0221
lradius 49.2857
lwrist -3.56138
lhand -18.8156 47.2945
lfingers 7.12502
lthumb 7.48318 77.1421
rfemur -16.1696 5.61625 23.6891
rtibia 15.0016
rfoot -7.79148 -18.5574
rtoes -15.4518
lfemur -30.8626 -6.84618 -10.6535
ltibia 30.3023
lfoot -12.8246 3.52707
ltoes -28.736
331
root -7.81618 17.7247 -1.77544 -137.553 78.6613 -151.063
lowerback 10.3114 1.76606 -1.21793
upperback 4.69352 2.40503 -2.91227
thorax -0.815018 1.30966 -2.59045
lowerneck -21.5802 6.83692 4.98393
upperneck 40.0284 13.7664 -5.91337
head 20.2141 5.73506 -0.390731
rclavicle 2.14687e-014 -7.95139e-015
rhumerus -14.6282 35.9606 -81.4172
rradius 103.7
rwrist -31.6702
rhand -35.3528 30.0437
rfingers 7.12502
rthumb -8.48526 0.234185
lclavicle 2.14687e-014 -7.95139e-015
lhumerus 4.18803 0.281614 75.3887
lradius 49.5066
lwrist -3.82229
lhand -19.1944 48.552
lfingers 7.12502
lthumb 7.11746 78.4123
rfemur -16.9248 4.86571 23.8863
rtibia 15.7051
rfoot -8.13759 -17.319
rtoes -15.5863
lfemur -31.2296 -6.00867 -10.6219
ltibia 30.5457
lfoot -12.8532 3.01236
ltoes -28.6749
332
root -7.84738 17.7208 -1.81882 -135.597 78.9738 -149.355
lowerback 10.6152 1.8427 -1.47229
upperback 4.85507 2.49156 -3.08266
thorax -0.81119 1.3586 -2.64301
lowerneck -21.5539 7.11922 5.14907
upperneck 39.5133 14.3075 -6.54155
head 20.0401 5.8767 -0.595527
rclavicle -4.05521e-014 2.8625e-014
rhumerus -13.8761 36.8481 -81.6982
rradius 103.604
rwrist -31.39
rhand -35.4728 28.7524
rfingers 7.12502
rthumb -8.60108 -1.05237
lclavicle -4.05521e-014 2.8625e-014
lhumerus 4.75797 1.77774 75.8404
lradius 49.7974
lwrist -4.09418
lhand -19.6942 49.8997
lfingers 7.12502
lthumb 6.635 79.7757
rfemur -17.8601 3.87519 23.9024
rtibia 16.5028
rfoot -8.53461 -15.7515
rtoes -15.7252
lfemur -31.6493 -5.39875 -10.7289
ltibia 30.7991
lfoot -12.9055 2.87432
ltoes -28.9961
333
root -7.87694 17.7161 -1.86172 -133.368 79.2976 -147.381
lowerback 10.9237 2.04195 -1.56402
upperback 4.93435 2.74795 -3.36585
thorax -0.875999 1.4948 -2.92694
lowerneck -21.4903 7.15846 5.47394
upperneck 39.1666 14.4331 -7.14556
head 19.9436 5.89542 -0.914388
rclavicle 3.18055e-014 -2.8625e-014
rhumerus -13.2638 37.4327 -82.0254
rradius 103.397
rwrist -31.2987
rhand -35.495 27.7521
rfingers 7.12502
rthumb -8.62251 -2.0518
lclavicle 3.18055e-014 -2.8625e-014
lhumerus 5.25356 2.86743 76.224
lradius 50.1655
lwrist -4.25968
lhand -20.9143 51.2588
lfingers 7.12502
lthumb 5.45708 81.1685
rfemur -18.8342 2.79022 23.9425
rtibia 17.3621
rfoot -9.04929 -14.0437
rtoes -15.3413
lfemur -32.0668 -4.7579 -10.851
ltibia 31.0704
lfoot -12.9774 2.79931
ltoes -29.7718
